<svg version="1.1" xmlns="http://www.w3.org/2000/svg" xmlns:xlink="http://www.w3.org/1999/xlink" width="570.25537109375" height="1106"><defs/><g><g transform="translate(-10,-10) scale(1,1)"><rect fill="#C0C0C0" stroke="none" x="230.49462890625" y="44.5" width="103.6435546875" height="24" opacity="0.2"/></g><g transform="translate(-10,-10) scale(1,1)"><rect fill="#ffffff" stroke="none" x="223.49462890625" y="37.5" width="103.6435546875" height="24"/></g><g transform="translate(-10,-10) scale(1,1)"><path fill="none" stroke="#000000" d="M 223.49462890625 37.5 L 327.13818359375 37.5 L 327.13818359375 61.5 L 223.49462890625 61.5 L 223.49462890625 37.5 Z Z" stroke-miterlimit="10"/></g><g transform="translate(-10,-10) scale(1,1)"><g><path fill="none" stroke="none"/><text fill="#000000" stroke="none" font-family="Arial" font-size="13px" font-style="italic" font-weight="bold" text-decoration="none" x="230.866943359375" y="57">BuyableSquare</text></g></g><g transform="translate(-10,-10) scale(1,1)"><rect fill="#C0C0C0" stroke="none" x="237.473876953125" y="79.5" width="82.68994140625" height="24" opacity="0.2"/></g><g transform="translate(-10,-10) scale(1,1)"><rect fill="#ffffff" stroke="none" x="230.473876953125" y="72.5" width="82.68994140625" height="24"/></g><g transform="translate(-10,-10) scale(1,1)"><path fill="none" stroke="#000000" d="M 230.473876953125 72.5 L 313.163818359375 72.5 L 313.163818359375 96.5 L 230.473876953125 96.5 L 230.473876953125 72.5 Z Z" stroke-miterlimit="10"/></g><g transform="translate(-10,-10) scale(1,1)"><g><path fill="none" stroke="none"/><text fill="#000000" stroke="none" font-family="Arial" font-size="13px" font-style="normal" font-weight="bold" text-decoration="none" x="236.770263671875" y="92">CardSquare</text></g></g><g transform="translate(-10,-10) scale(1,1)"><rect fill="#C0C0C0" stroke="none" x="450.85498046875" y="27" width="106.53173828125" height="24" opacity="0.2"/></g><g transform="translate(-10,-10) scale(1,1)"><rect fill="#ffffff" stroke="none" x="443.85498046875" y="20" width="106.53173828125" height="24"/></g><g transform="translate(-10,-10) scale(1,1)"><path fill="none" stroke="#000000" d="M 443.85498046875 20 L 550.38671875 20 L 550.38671875 44 L 443.85498046875 44 L 443.85498046875 20 Z Z" stroke-miterlimit="10"/></g><g transform="translate(-10,-10) scale(1,1)"><g><path fill="none" stroke="none"/><text fill="#000000" stroke="none" font-family="Arial" font-size="13px" font-style="normal" font-weight="bold" text-decoration="none" x="451.595458984375" y="39.5">PropertySquare</text></g></g><g transform="translate(-10,-10) scale(1,1)"><rect fill="#C0C0C0" stroke="none" x="451.2041015625" y="62" width="105.08447265625" height="24" opacity="0.2"/></g><g transform="translate(-10,-10) scale(1,1)"><rect fill="#ffffff" stroke="none" x="444.2041015625" y="55" width="105.08447265625" height="24"/></g><g transform="translate(-10,-10) scale(1,1)"><path fill="none" stroke="#000000" d="M 444.2041015625 55 L 549.28857421875 55 L 549.28857421875 79 L 444.2041015625 79 L 444.2041015625 55 Z Z" stroke-miterlimit="10"/></g><g transform="translate(-10,-10) scale(1,1)"><g><path fill="none" stroke="none"/><text fill="#000000" stroke="none" font-family="Arial" font-size="13px" font-style="normal" font-weight="bold" text-decoration="none" x="451.57958984375" y="74.5">RailroadSquare</text></g></g><g transform="translate(-10,-10) scale(1,1)"><rect fill="#C0C0C0" stroke="none" x="49.013671875" y="62" width="53.07177734375" height="24" opacity="0.2"/></g><g transform="translate(-10,-10) scale(1,1)"><rect fill="#ffffff" stroke="none" x="42.013671875" y="55" width="53.07177734375" height="24"/></g><g transform="translate(-10,-10) scale(1,1)"><path fill="none" stroke="#000000" d="M 42.013671875 55 L 95.08544921875 55 L 95.08544921875 79 L 42.013671875 79 L 42.013671875 55 Z Z" stroke-miterlimit="10"/></g><g transform="translate(-10,-10) scale(1,1)"><g><path fill="none" stroke="none"/><text fill="#000000" stroke="none" font-family="Arial" font-size="13px" font-style="normal" font-weight="bold" text-decoration="none" x="47.589599609375" y="74.5">Square</text></g></g><g transform="translate(-10,-10) scale(1,1)"><rect fill="#C0C0C0" stroke="none" x="241.67919921875" y="114.5" width="74.5078125" height="24" opacity="0.2"/></g><g transform="translate(-10,-10) scale(1,1)"><rect fill="#ffffff" stroke="none" x="234.67919921875" y="107.5" width="74.5078125" height="24"/></g><g transform="translate(-10,-10) scale(1,1)"><path fill="none" stroke="#000000" d="M 234.67919921875 107.5 L 309.18701171875 107.5 L 309.18701171875 131.5 L 234.67919921875 131.5 L 234.67919921875 107.5 Z Z" stroke-miterlimit="10"/></g><g transform="translate(-10,-10) scale(1,1)"><g><path fill="none" stroke="none"/><text fill="#000000" stroke="none" font-family="Arial" font-size="13px" font-style="normal" font-weight="bold" text-decoration="none" x="240.858154296875" y="127">TaxSquare</text></g></g><g transform="translate(-10,-10) scale(1,1)"><rect fill="#C0C0C0" stroke="none" x="457.95166015625" y="111" width="89.18359375" height="24" opacity="0.2"/></g><g transform="translate(-10,-10) scale(1,1)"><rect fill="#ffffff" stroke="none" x="450.95166015625" y="104" width="89.18359375" height="24"/></g><g transform="translate(-10,-10) scale(1,1)"><path fill="none" stroke="#000000" d="M 450.95166015625 104 L 540.13525390625 104 L 540.13525390625 128 L 450.95166015625 128 L 450.95166015625 104 Z Z" stroke-miterlimit="10"/></g><g transform="translate(-10,-10) scale(1,1)"><g><path fill="none" stroke="none"/><text fill="#000000" stroke="none" font-family="Arial" font-size="13px" font-style="normal" font-weight="bold" text-decoration="none" x="458.6953125" y="123.5">UtilitySquare</text></g></g><g transform="translate(-10,-10) scale(1,1)"><rect fill="#C0C0C0" stroke="none" x="55.396240234375" y="167" width="38.6181640625" height="24" opacity="0.2"/></g><g transform="translate(-10,-10) scale(1,1)"><rect fill="#ffffff" stroke="none" x="48.396240234375" y="160" width="38.6181640625" height="24"/></g><g transform="translate(-10,-10) scale(1,1)"><path fill="none" stroke="#000000" d="M 48.396240234375 160 L 87.014404296875 160 L 87.014404296875 184 L 48.396240234375 184 L 48.396240234375 160 Z Z" stroke-miterlimit="10"/></g><g transform="translate(-10,-10) scale(1,1)"><g><path fill="none" stroke="none"/><text fill="#000000" stroke="none" font-family="Arial" font-size="13px" font-style="italic" font-weight="bold" text-decoration="none" x="53.61669921875" y="179.5">Card</text></g></g><g transform="translate(-10,-10) scale(1,1)"><rect fill="#C0C0C0" stroke="none" x="40.238037109375" y="202" width="69.6962890625" height="24" opacity="0.2"/></g><g transform="translate(-10,-10) scale(1,1)"><rect fill="#ffffff" stroke="none" x="33.238037109375" y="195" width="69.6962890625" height="24"/></g><g transform="translate(-10,-10) scale(1,1)"><path fill="none" stroke="#000000" d="M 33.238037109375 195 L 102.934326171875 195 L 102.934326171875 219 L 33.238037109375 219 L 33.238037109375 195 Z Z" stroke-miterlimit="10"/></g><g transform="translate(-10,-10) scale(1,1)"><g><path fill="none" stroke="none"/><text fill="#000000" stroke="none" font-family="Arial" font-size="13px" font-style="normal" font-weight="bold" text-decoration="none" x="39.1884765625" y="214.5">CardDeck</text></g></g><g transform="translate(-10,-10) scale(1,1)"><rect fill="#C0C0C0" stroke="none" x="250.721435546875" y="149.5" width="55.9599609375" height="24" opacity="0.2"/></g><g transform="translate(-10,-10) scale(1,1)"><rect fill="#ffffff" stroke="none" x="243.721435546875" y="142.5" width="55.9599609375" height="24"/></g><g transform="translate(-10,-10) scale(1,1)"><path fill="none" stroke="#000000" d="M 243.721435546875 142.5 L 299.681396484375 142.5 L 299.681396484375 166.5 L 243.721435546875 166.5 L 243.721435546875 142.5 Z Z" stroke-miterlimit="10"/></g><g transform="translate(-10,-10) scale(1,1)"><g><path fill="none" stroke="none"/><text fill="#000000" stroke="none" font-family="Arial" font-size="13px" font-style="normal" font-weight="bold" text-decoration="none" x="249.29736328125" y="162">Chance</text></g></g><g transform="translate(-10,-10) scale(1,1)"><rect fill="#C0C0C0" stroke="none" x="222.5537109375" y="237" width="116.6181640625" height="24" opacity="0.2"/></g><g transform="translate(-10,-10) scale(1,1)"><rect fill="#ffffff" stroke="none" x="215.5537109375" y="230" width="116.6181640625" height="24"/></g><g transform="translate(-10,-10) scale(1,1)"><path fill="none" stroke="#000000" d="M 215.5537109375 230 L 332.171875 230 L 332.171875 254 L 215.5537109375 254 L 215.5537109375 230 Z Z" stroke-miterlimit="10"/></g><g transform="translate(-10,-10) scale(1,1)"><g><path fill="none" stroke="none"/><text fill="#000000" stroke="none" font-family="Arial" font-size="13px" font-style="normal" font-weight="bold" text-decoration="none" x="224.0146484375" y="249.5">CommunityChest</text></g></g><g transform="translate(-10,-10) scale(1,1)"><rect fill="#C0C0C0" stroke="none" x="238.8037109375" y="447" width="81.24267578125" height="24" opacity="0.2"/></g><g transform="translate(-10,-10) scale(1,1)"><rect fill="#ffffff" stroke="none" x="231.8037109375" y="440" width="81.24267578125" height="24"/></g><g transform="translate(-10,-10) scale(1,1)"><path fill="none" stroke="#000000" d="M 231.8037109375 440 L 313.04638671875 440 L 313.04638671875 464 L 231.8037109375 464 L 231.8037109375 440 Z Z" stroke-miterlimit="10"/></g><g transform="translate(-10,-10) scale(1,1)"><g><path fill="none" stroke="none"/><text fill="#000000" stroke="none" font-family="Arial" font-size="13px" font-style="normal" font-weight="bold" text-decoration="none" x="238.45556640625" y="459.5">BoardPanel</text></g></g><g transform="translate(-10,-10) scale(1,1)"><rect fill="#C0C0C0" stroke="none" x="245.3037109375" y="342" width="67.50634765625" height="24" opacity="0.2"/></g><g transform="translate(-10,-10) scale(1,1)"><rect fill="#ffffff" stroke="none" x="238.3037109375" y="335" width="67.50634765625" height="24"/></g><g transform="translate(-10,-10) scale(1,1)"><path fill="none" stroke="#000000" d="M 238.3037109375 335 L 305.81005859375 335 L 305.81005859375 359 L 238.3037109375 359 L 238.3037109375 335 Z Z" stroke-miterlimit="10"/></g><g transform="translate(-10,-10) scale(1,1)"><g><path fill="none" stroke="none"/><text fill="#000000" stroke="none" font-family="Arial" font-size="13px" font-style="normal" font-weight="bold" text-decoration="none" x="244.58740234375" y="354.5">LogPanel</text></g></g><g transform="translate(-10,-10) scale(1,1)"><rect fill="#C0C0C0" stroke="none" x="238.45458984375" y="377" width="77.630859375" height="24" opacity="0.2"/></g><g transform="translate(-10,-10) scale(1,1)"><rect fill="#ffffff" stroke="none" x="231.45458984375" y="370" width="77.630859375" height="24"/></g><g transform="translate(-10,-10) scale(1,1)"><path fill="none" stroke="#000000" d="M 231.45458984375 370 L 309.08544921875 370 L 309.08544921875 394 L 231.45458984375 394 L 231.45458984375 370 Z Z" stroke-miterlimit="10"/></g><g transform="translate(-10,-10) scale(1,1)"><g><path fill="none" stroke="none"/><text fill="#000000" stroke="none" font-family="Arial" font-size="13px" font-style="normal" font-weight="bold" text-decoration="none" x="237.40185546875" y="389.5">MainFrame</text></g></g><g transform="translate(-10,-10) scale(1,1)"><rect fill="#C0C0C0" stroke="none" x="225.45458984375" y="482" width="108.70263671875" height="24" opacity="0.2"/></g><g transform="translate(-10,-10) scale(1,1)"><rect fill="#ffffff" stroke="none" x="218.45458984375" y="475" width="108.70263671875" height="24"/></g><g transform="translate(-10,-10) scale(1,1)"><path fill="none" stroke="#000000" d="M 218.45458984375 475 L 327.1572265625 475 L 327.1572265625 499 L 218.45458984375 499 L 218.45458984375 475 Z Z" stroke-miterlimit="10"/></g><g transform="translate(-10,-10) scale(1,1)"><g><path fill="none" stroke="none"/><text fill="#000000" stroke="none" font-family="Arial" font-size="13px" font-style="normal" font-weight="bold" text-decoration="none" x="226.1982421875" y="494.5">PlayerContainer</text></g></g><g transform="translate(-10,-10) scale(1,1)"><rect fill="#C0C0C0" stroke="none" x="241.339599609375" y="412" width="74.75537109375" height="24" opacity="0.2"/></g><g transform="translate(-10,-10) scale(1,1)"><rect fill="#ffffff" stroke="none" x="234.339599609375" y="405" width="74.75537109375" height="24"/></g><g transform="translate(-10,-10) scale(1,1)"><path fill="none" stroke="#000000" d="M 234.339599609375 405 L 309.094970703125 405 L 309.094970703125 429 L 234.339599609375 429 L 234.339599609375 405 Z Z" stroke-miterlimit="10"/></g><g transform="translate(-10,-10) scale(1,1)"><g><path fill="none" stroke="none"/><text fill="#000000" stroke="none" font-family="Arial" font-size="13px" font-style="normal" font-weight="bold" text-decoration="none" x="241.00732421875" y="424.5">PlayerIcon</text></g></g><g transform="translate(-10,-10) scale(1,1)"><rect fill="#C0C0C0" stroke="none" x="238.0927734375" y="517" width="82.71533203125" height="24" opacity="0.2"/></g><g transform="translate(-10,-10) scale(1,1)"><rect fill="#ffffff" stroke="none" x="231.0927734375" y="510" width="82.71533203125" height="24"/></g><g transform="translate(-10,-10) scale(1,1)"><path fill="none" stroke="#000000" d="M 231.0927734375 510 L 313.80810546875 510 L 313.80810546875 534 L 231.0927734375 534 L 231.0927734375 510 Z Z" stroke-miterlimit="10"/></g><g transform="translate(-10,-10) scale(1,1)"><g><path fill="none" stroke="none"/><text fill="#000000" stroke="none" font-family="Arial" font-size="13px" font-style="normal" font-weight="bold" text-decoration="none" x="237.40185546875" y="529.5">PlayerPanel</text></g></g><g transform="translate(-10,-10) scale(1,1)"><rect fill="#C0C0C0" stroke="none" x="241.92041015625" y="587" width="73.02880859375" height="24" opacity="0.2"/></g><g transform="translate(-10,-10) scale(1,1)"><rect fill="#ffffff" stroke="none" x="234.92041015625" y="580" width="73.02880859375" height="24"/></g><g transform="translate(-10,-10) scale(1,1)"><path fill="none" stroke="#000000" d="M 234.92041015625 580 L 307.94921875 580 L 307.94921875 604 L 234.92041015625 604 L 234.92041015625 580 Z Z" stroke-miterlimit="10"/></g><g transform="translate(-10,-10) scale(1,1)"><g><path fill="none" stroke="none"/><text fill="#000000" stroke="none" font-family="Arial" font-size="13px" font-style="normal" font-weight="bold" text-decoration="none" x="241.6865234375" y="599.5">BeginTurn</text></g></g><g transform="translate(-10,-10) scale(1,1)"><rect fill="#C0C0C0" stroke="none" x="238.076904296875" y="622" width="83.39453125" height="24" opacity="0.2"/></g><g transform="translate(-10,-10) scale(1,1)"><rect fill="#ffffff" stroke="none" x="231.076904296875" y="615" width="83.39453125" height="24"/></g><g transform="translate(-10,-10) scale(1,1)"><path fill="none" stroke="#000000" d="M 231.076904296875 615 L 314.471435546875 615 L 314.471435546875 639 L 231.076904296875 639 L 231.076904296875 615 Z Z" stroke-miterlimit="10"/></g><g transform="translate(-10,-10) scale(1,1)"><g><path fill="none" stroke="none"/><text fill="#000000" stroke="none" font-family="Arial" font-size="13px" font-style="normal" font-weight="bold" text-decoration="none" x="237.71923828125" y="634.5">ChangeIcon</text></g></g><g transform="translate(-10,-10) scale(1,1)"><rect fill="#C0C0C0" stroke="none" x="234.11279296875" y="657" width="92.078125" height="24" opacity="0.2"/></g><g transform="translate(-10,-10) scale(1,1)"><rect fill="#ffffff" stroke="none" x="227.11279296875" y="650" width="92.078125" height="24"/></g><g transform="translate(-10,-10) scale(1,1)"><path fill="none" stroke="#000000" d="M 227.11279296875 650 L 319.19091796875 650 L 319.19091796875 674 L 227.11279296875 674 L 227.11279296875 650 Z Z" stroke-miterlimit="10"/></g><g transform="translate(-10,-10) scale(1,1)"><g><path fill="none" stroke="none"/><text fill="#000000" stroke="none" font-family="Arial" font-size="13px" font-style="normal" font-weight="bold" text-decoration="none" x="233.044189453125" y="669.5">ChangeName</text></g></g><g transform="translate(-10,-10) scale(1,1)"><rect fill="#C0C0C0" stroke="none" x="220.5224609375" y="692" width="121.70263671875" height="24" opacity="0.2"/></g><g transform="translate(-10,-10) scale(1,1)"><rect fill="#ffffff" stroke="none" x="213.5224609375" y="685" width="121.70263671875" height="24"/></g><g transform="translate(-10,-10) scale(1,1)"><path fill="none" stroke="#000000" d="M 213.5224609375 685 L 335.22509765625 685 L 335.22509765625 709 L 213.5224609375 709 L 213.5224609375 685 Z Z" stroke-miterlimit="10"/></g><g transform="translate(-10,-10) scale(1,1)"><g><path fill="none" stroke="none"/><text fill="#000000" stroke="none" font-family="Arial" font-size="13px" font-style="normal" font-weight="bold" text-decoration="none" x="221.259765625" y="704.5">ManageProperties</text></g></g><g transform="translate(-10,-10) scale(1,1)"><rect fill="#C0C0C0" stroke="none" x="222.683837890625" y="727" width="115.18994140625" height="24" opacity="0.2"/></g><g transform="translate(-10,-10) scale(1,1)"><rect fill="#ffffff" stroke="none" x="215.683837890625" y="720" width="115.18994140625" height="24"/></g><g transform="translate(-10,-10) scale(1,1)"><path fill="none" stroke="#000000" d="M 215.683837890625 720 L 330.873779296875 720 L 330.873779296875 744 L 215.683837890625 744 L 215.683837890625 720 Z Z" stroke-miterlimit="10"/></g><g transform="translate(-10,-10) scale(1,1)"><g><path fill="none" stroke="none"/><text fill="#000000" stroke="none" font-family="Arial" font-size="13px" font-style="normal" font-weight="bold" text-decoration="none" x="223.77978515625" y="739.5">UpgradeProperty</text></g></g><g transform="translate(-10,-10) scale(1,1)"><rect fill="#C0C0C0" stroke="none" x="431" y="511" width="146.25537109375" height="24" opacity="0.2"/></g><g transform="translate(-10,-10) scale(1,1)"><rect fill="#ffffff" stroke="none" x="424" y="504" width="146.25537109375" height="24"/></g><g transform="translate(-10,-10) scale(1,1)"><path fill="none" stroke="#000000" d="M 424 504 L 570.25537109375 504 L 570.25537109375 528 L 424 528 L 424 504 Z Z" stroke-miterlimit="10"/></g><g transform="translate(-10,-10) scale(1,1)"><g><path fill="none" stroke="none"/><text fill="#000000" stroke="none" font-family="Arial" font-size="13px" font-style="normal" font-weight="bold" text-decoration="none" x="433.175048828125" y="523.5">ColoredPropertyPanel</text></g></g><g transform="translate(-10,-10) scale(1,1)"><rect fill="#C0C0C0" stroke="none" x="233.03369140625" y="552" width="97.1435546875" height="24" opacity="0.2"/></g><g transform="translate(-10,-10) scale(1,1)"><rect fill="#ffffff" stroke="none" x="226.03369140625" y="545" width="97.1435546875" height="24"/></g><g transform="translate(-10,-10) scale(1,1)"><path fill="none" stroke="#000000" d="M 226.03369140625 545 L 323.17724609375 545 L 323.17724609375 569 L 226.03369140625 569 L 226.03369140625 545 Z Z" stroke-miterlimit="10"/></g><g transform="translate(-10,-10) scale(1,1)"><g><path fill="none" stroke="none"/><text fill="#000000" stroke="none" font-family="Arial" font-size="13px" font-style="italic" font-weight="bold" text-decoration="none" x="233.41552734375" y="564.5">PropertyPanel</text></g></g><g transform="translate(-10,-10) scale(1,1)"><rect fill="#C0C0C0" stroke="none" x="455.42529296875" y="569.5" width="95.6962890625" height="24" opacity="0.2"/></g><g transform="translate(-10,-10) scale(1,1)"><rect fill="#ffffff" stroke="none" x="448.42529296875" y="562.5" width="95.6962890625" height="24"/></g><g transform="translate(-10,-10) scale(1,1)"><path fill="none" stroke="#000000" d="M 448.42529296875 562.5 L 544.12158203125 562.5 L 544.12158203125 586.5 L 448.42529296875 586.5 L 448.42529296875 562.5 Z Z" stroke-miterlimit="10"/></g><g transform="translate(-10,-10) scale(1,1)"><g><path fill="none" stroke="none"/><text fill="#000000" stroke="none" font-family="Arial" font-size="13px" font-style="normal" font-weight="bold" text-decoration="none" x="455.442138671875" y="582">RailroadPanel</text></g></g><g transform="translate(-10,-10) scale(1,1)"><rect fill="#C0C0C0" stroke="none" x="462.1728515625" y="604.5" width="79.79541015625" height="24" opacity="0.2"/></g><g transform="translate(-10,-10) scale(1,1)"><rect fill="#ffffff" stroke="none" x="455.1728515625" y="597.5" width="79.79541015625" height="24"/></g><g transform="translate(-10,-10) scale(1,1)"><path fill="none" stroke="#000000" d="M 455.1728515625 597.5 L 534.96826171875 597.5 L 534.96826171875 621.5 L 455.1728515625 621.5 L 455.1728515625 597.5 Z Z" stroke-miterlimit="10"/></g><g transform="translate(-10,-10) scale(1,1)"><g><path fill="none" stroke="none"/><text fill="#000000" stroke="none" font-family="Arial" font-size="13px" font-style="normal" font-weight="bold" text-decoration="none" x="462.557861328125" y="617">UtilityPanel</text></g></g><g transform="translate(-10,-10) scale(1,1)"><rect fill="#C0C0C0" stroke="none" x="50.71484375" y="237" width="48.03173828125" height="24" opacity="0.2"/></g><g transform="translate(-10,-10) scale(1,1)"><rect fill="#ffffff" stroke="none" x="43.71484375" y="230" width="48.03173828125" height="24"/></g><g transform="translate(-10,-10) scale(1,1)"><path fill="none" stroke="#000000" d="M 43.71484375 230 L 91.74658203125 230 L 91.74658203125 254 L 43.71484375 254 L 43.71484375 230 Z Z" stroke-miterlimit="10"/></g><g transform="translate(-10,-10) scale(1,1)"><g><path fill="none" stroke="none"/><text fill="#000000" stroke="none" font-family="Arial" font-size="13px" font-style="normal" font-weight="bold" text-decoration="none" x="49.306640625" y="249.5">Player</text></g></g><g transform="translate(-10,-10) scale(1,1)"><rect fill="#C0C0C0" stroke="none" x="40.5966796875" y="272" width="69.6708984375" height="24" opacity="0.2"/></g><g transform="translate(-10,-10) scale(1,1)"><rect fill="#ffffff" stroke="none" x="33.5966796875" y="265" width="69.6708984375" height="24"/></g><g transform="translate(-10,-10) scale(1,1)"><path fill="none" stroke="#000000" d="M 33.5966796875 265 L 103.267578125 265 L 103.267578125 289 L 33.5966796875 289 L 33.5966796875 265 Z Z" stroke-miterlimit="10"/></g><g transform="translate(-10,-10) scale(1,1)"><g><path fill="none" stroke="none"/><text fill="#000000" stroke="none" font-family="Arial" font-size="13px" font-style="normal" font-weight="bold" text-decoration="none" x="40.2548828125" y="284.5">Colormap</text></g></g><g transform="translate(-10,-10) scale(1,1)"><rect fill="#C0C0C0" stroke="none" x="47.4521484375" y="307" width="54.5" height="24" opacity="0.2"/></g><g transform="translate(-10,-10) scale(1,1)"><rect fill="#ffffff" stroke="none" x="40.4521484375" y="300" width="54.5" height="24"/></g><g transform="translate(-10,-10) scale(1,1)"><path fill="none" stroke="#000000" d="M 40.4521484375 300 L 94.9521484375 300 L 94.9521484375 324 L 40.4521484375 324 L 40.4521484375 300 Z Z" stroke-miterlimit="10"/></g><g transform="translate(-10,-10) scale(1,1)"><g><path fill="none" stroke="none"/><text fill="#000000" stroke="none" font-family="Arial" font-size="13px" font-style="normal" font-weight="bold" text-decoration="none" x="46.745361328125" y="319.5">Startup</text></g></g><g transform="translate(-10,-10) scale(1,1)"><rect fill="#C0C0C0" stroke="none" x="49.98486328125" y="482" width="50.91357421875" height="24" opacity="0.2"/></g><g transform="translate(-10,-10) scale(1,1)"><rect fill="#ffffff" stroke="none" x="42.98486328125" y="475" width="50.91357421875" height="24"/></g><g transform="translate(-10,-10) scale(1,1)"><path fill="none" stroke="#000000" d="M 42.98486328125 475 L 93.8984375 475 L 93.8984375 499 L 42.98486328125 499 L 42.98486328125 475 Z Z" stroke-miterlimit="10"/></g><g transform="translate(-10,-10) scale(1,1)"><g><path fill="none" stroke="none"/><text fill="#000000" stroke="none" font-family="Arial" font-size="13px" font-style="normal" font-weight="bold" text-decoration="none" x="48.567138671875" y="494.5">JPanel</text></g></g><g transform="translate(-10,-10) scale(1,1)"><rect fill="#C0C0C0" stroke="none" x="35.661376953125" y="342" width="83.42626953125" height="24" opacity="0.2"/></g><g transform="translate(-10,-10) scale(1,1)"><rect fill="#ffffff" stroke="none" x="28.661376953125" y="335" width="83.42626953125" height="24"/></g><g transform="translate(-10,-10) scale(1,1)"><path fill="none" stroke="#000000" d="M 28.661376953125 335 L 112.087646484375 335 L 112.087646484375 359 L 28.661376953125 359 L 28.661376953125 335 Z Z" stroke-miterlimit="10"/></g><g transform="translate(-10,-10) scale(1,1)"><g><path fill="none" stroke="none"/><text fill="#000000" stroke="none" font-family="Arial" font-size="13px" font-style="normal" font-weight="bold" text-decoration="none" x="35.69091796875" y="354.5">JScrollPane</text></g></g><g transform="translate(-10,-10) scale(1,1)"><rect fill="#C0C0C0" stroke="none" x="47.106201171875" y="377" width="55.2490234375" height="24" opacity="0.2"/></g><g transform="translate(-10,-10) scale(1,1)"><rect fill="#ffffff" stroke="none" x="40.106201171875" y="370" width="55.2490234375" height="24"/></g><g transform="translate(-10,-10) scale(1,1)"><path fill="none" stroke="#000000" d="M 40.106201171875 370 L 95.355224609375 370 L 95.355224609375 394 L 40.106201171875 394 L 40.106201171875 370 Z Z" stroke-miterlimit="10"/></g><g transform="translate(-10,-10) scale(1,1)"><g><path fill="none" stroke="none"/><text fill="#000000" stroke="none" font-family="Arial" font-size="13px" font-style="normal" font-weight="bold" text-decoration="none" x="45.701171875" y="389.5">JFrame</text></g></g><g transform="translate(-10,-10) scale(1,1)"><rect fill="#C0C0C0" stroke="none" x="49.619873046875" y="412" width="50.18359375" height="24" opacity="0.2"/></g><g transform="translate(-10,-10) scale(1,1)"><rect fill="#ffffff" stroke="none" x="42.619873046875" y="405" width="50.18359375" height="24"/></g><g transform="translate(-10,-10) scale(1,1)"><path fill="none" stroke="#000000" d="M 42.619873046875 405 L 92.803466796875 405 L 92.803466796875 429 L 42.619873046875 429 L 42.619873046875 405 Z Z" stroke-miterlimit="10"/></g><g transform="translate(-10,-10) scale(1,1)"><g><path fill="none" stroke="none"/><text fill="#000000" stroke="none" font-family="Arial" font-size="13px" font-style="normal" font-weight="bold" text-decoration="none" x="48.5576171875" y="424.5">JLabel</text></g></g><g transform="translate(-10,-10) scale(1,1)"><path fill="#C0C0C0" stroke="none" d="M 65.74755859375 621.5 C 65.74755859375 615.1487248 70.89628339375 610 77.24755859375 610 C 83.59883379375 610 88.74755859375 615.1487248 88.74755859375 621.5 C 88.74755859375 627.8512752 83.59883379375 633 77.24755859375 633 C 70.89628339375 633 65.74755859375 627.8512752 65.74755859375 621.5 Z" opacity="0.2"/></g><g transform="translate(-10,-10) scale(1,1)"><path fill="#ffffff" stroke="none" d="M 58.74755859375 614.5 C 58.74755859375 608.1487248 63.89628339375 603 70.24755859375 603 C 76.59883379375 603 81.74755859375 608.1487248 81.74755859375 614.5 C 81.74755859375 620.8512752 76.59883379375 626 70.24755859375 626 C 63.89628339375 626 58.74755859375 620.8512752 58.74755859375 614.5 Z"/></g><g transform="translate(-10,-10) scale(1,1)"><path fill="none" stroke="#000000" d="M 58.74755859375 614.5 C 58.74755859375 608.1487248 63.89628339375 603 70.24755859375 603 C 76.59883379375 603 81.74755859375 608.1487248 81.74755859375 614.5 C 81.74755859375 620.8512752 76.59883379375 626 70.24755859375 626 C 63.89628339375 626 58.74755859375 620.8512752 58.74755859375 614.5 Z" stroke-miterlimit="10"/></g><g transform="translate(-10,-10) scale(1,1)"><g><path fill="none" stroke="none"/><text fill="#000000" stroke="none" font-family="Arial" font-size="13px" font-style="normal" font-weight="bold" text-decoration="none" x="29.0576171875" y="645.5">ActionListener</text></g></g><g transform="translate(-10,-10) scale(1,1)"><rect fill="#C0C0C0" stroke="none" x="58.2939453125" y="669" width="31.39453125" height="24" opacity="0.2"/></g><g transform="translate(-10,-10) scale(1,1)"><rect fill="#ffffff" stroke="none" x="51.2939453125" y="662" width="31.39453125" height="24"/></g><g transform="translate(-10,-10) scale(1,1)"><path fill="none" stroke="#000000" d="M 51.2939453125 662 L 82.6884765625 662 L 82.6884765625 686 L 51.2939453125 686 L 51.2939453125 662 Z Z" stroke-miterlimit="10"/></g><g transform="translate(-10,-10) scale(1,1)"><g><path fill="none" stroke="none"/><text fill="#000000" stroke="none" font-family="Arial" font-size="13px" font-style="normal" font-weight="bold" text-decoration="none" x="56.517578125" y="681.5">File</text></g></g><g transform="translate(-10,-10) scale(1,1)"><rect fill="#C0C0C0" stroke="none" x="43.119873046875" y="704" width="65.3544921875" height="24" opacity="0.2"/></g><g transform="translate(-10,-10) scale(1,1)"><rect fill="#ffffff" stroke="none" x="36.119873046875" y="697" width="65.3544921875" height="24"/></g><g transform="translate(-10,-10) scale(1,1)"><path fill="none" stroke="#000000" d="M 36.119873046875 697 L 101.474365234375 697 L 101.474365234375 721 L 36.119873046875 721 L 36.119873046875 697 Z Z" stroke-miterlimit="10"/></g><g transform="translate(-10,-10) scale(1,1)"><g><path fill="none" stroke="none"/><text fill="#000000" stroke="none" font-family="Arial" font-size="13px" font-style="normal" font-weight="bold" text-decoration="none" x="42.78759765625" y="716.5">Graphics</text></g></g><g transform="translate(-10,-10) scale(1,1)"><rect fill="#C0C0C0" stroke="none" x="34.0966796875" y="739" width="84.841796875" height="24" opacity="0.2"/></g><g transform="translate(-10,-10) scale(1,1)"><rect fill="#ffffff" stroke="none" x="27.0966796875" y="732" width="84.841796875" height="24"/></g><g transform="translate(-10,-10) scale(1,1)"><path fill="none" stroke="#000000" d="M 27.0966796875 732 L 111.9384765625 732 L 111.9384765625 756 L 27.0966796875 756 L 27.0966796875 732 Z Z" stroke-miterlimit="10"/></g><g transform="translate(-10,-10) scale(1,1)"><g><path fill="none" stroke="none"/><text fill="#000000" stroke="none" font-family="Arial" font-size="13px" font-style="normal" font-weight="bold" text-decoration="none" x="34.830810546875" y="751.5">ActionEvent</text></g></g><g transform="translate(-10,-10) scale(1,1)"><rect fill="#C0C0C0" stroke="none" x="52.876220703125" y="774" width="42.94091796875" height="24" opacity="0.2"/></g><g transform="translate(-10,-10) scale(1,1)"><rect fill="#ffffff" stroke="none" x="45.876220703125" y="767" width="42.94091796875" height="24"/></g><g transform="translate(-10,-10) scale(1,1)"><path fill="none" stroke="#000000" d="M 45.876220703125 767 L 88.817138671875 767 L 88.817138671875 791 L 45.876220703125 791 L 45.876220703125 767 Z Z" stroke-miterlimit="10"/></g><g transform="translate(-10,-10) scale(1,1)"><g><path fill="none" stroke="none"/><text fill="#000000" stroke="none" font-family="Arial" font-size="13px" font-style="normal" font-weight="bold" text-decoration="none" x="51.81396484375" y="786.5">Color</text></g></g><g transform="translate(-10,-10) scale(1,1)"><rect fill="#C0C0C0" stroke="none" x="46.369873046875" y="809" width="60.28271484375" height="24" opacity="0.2"/></g><g transform="translate(-10,-10) scale(1,1)"><rect fill="#ffffff" stroke="none" x="39.369873046875" y="802" width="60.28271484375" height="24"/></g><g transform="translate(-10,-10) scale(1,1)"><path fill="none" stroke="#000000" d="M 39.369873046875 802 L 99.652587890625 802 L 99.652587890625 826 L 39.369873046875 826 L 39.369873046875 802 Z Z" stroke-miterlimit="10"/></g><g transform="translate(-10,-10) scale(1,1)"><g><path fill="none" stroke="none"/><text fill="#000000" stroke="none" font-family="Arial" font-size="13px" font-style="normal" font-weight="bold" text-decoration="none" x="45.65673828125" y="821.5">Boolean</text></g></g><g transform="translate(-10,-10) scale(1,1)"><rect fill="#C0C0C0" stroke="none" x="51.43212890625" y="844" width="46.57177734375" height="24" opacity="0.2"/></g><g transform="translate(-10,-10) scale(1,1)"><rect fill="#ffffff" stroke="none" x="44.43212890625" y="837" width="46.57177734375" height="24"/></g><g transform="translate(-10,-10) scale(1,1)"><path fill="none" stroke="#000000" d="M 44.43212890625 837 L 91.00390625 837 L 91.00390625 861 L 44.43212890625 861 L 44.43212890625 837 Z Z" stroke-miterlimit="10"/></g><g transform="translate(-10,-10) scale(1,1)"><g><path fill="none" stroke="none"/><text fill="#000000" stroke="none" font-family="Arial" font-size="13px" font-style="normal" font-weight="bold" text-decoration="none" x="49.652587890625" y="856.5">Image</text></g></g><g transform="translate(-10,-10) scale(1,1)"><rect fill="#C0C0C0" stroke="none" x="46.36669921875" y="879" width="58.09912109375" height="24" opacity="0.2"/></g><g transform="translate(-10,-10) scale(1,1)"><rect fill="#ffffff" stroke="none" x="39.36669921875" y="872" width="58.09912109375" height="24"/></g><g transform="translate(-10,-10) scale(1,1)"><path fill="none" stroke="#000000" d="M 39.36669921875 872 L 97.4658203125 872 L 97.4658203125 896 L 39.36669921875 896 L 39.36669921875 872 Z Z" stroke-miterlimit="10"/></g><g transform="translate(-10,-10) scale(1,1)"><g><path fill="none" stroke="none"/><text fill="#000000" stroke="none" font-family="Arial" font-size="13px" font-style="normal" font-weight="bold" text-decoration="none" x="46.3740234375" y="891.5">JButton</text></g></g><g transform="translate(-10,-10) scale(1,1)"><rect fill="#C0C0C0" stroke="none" x="39.876220703125" y="914" width="70.90234375" height="24" opacity="0.2"/></g><g transform="translate(-10,-10) scale(1,1)"><rect fill="#ffffff" stroke="none" x="32.876220703125" y="907" width="70.90234375" height="24"/></g><g transform="translate(-10,-10) scale(1,1)"><path fill="none" stroke="#000000" d="M 32.876220703125 907 L 103.778564453125 907 L 103.778564453125 931 L 32.876220703125 931 L 32.876220703125 907 Z Z" stroke-miterlimit="10"/></g><g transform="translate(-10,-10) scale(1,1)"><g><path fill="none" stroke="none"/><text fill="#000000" stroke="none" font-family="Arial" font-size="13px" font-style="normal" font-weight="bold" text-decoration="none" x="39.426513671875" y="926.5">JTextArea</text></g></g><g transform="translate(-10,-10) scale(1,1)"><rect fill="#C0C0C0" stroke="none" x="27" y="949" width="100.01904296875" height="24" opacity="0.2"/></g><g transform="translate(-10,-10) scale(1,1)"><rect fill="#ffffff" stroke="none" x="20" y="942" width="100.01904296875" height="24"/></g><g transform="translate(-10,-10) scale(1,1)"><path fill="none" stroke="#000000" d="M 20 942 L 120.01904296875 942 L 120.01904296875 966 L 20 966 L 20 942 Z Z" stroke-miterlimit="10"/></g><g transform="translate(-10,-10) scale(1,1)"><g><path fill="none" stroke="none"/><text fill="#000000" stroke="none" font-family="Arial" font-size="13px" font-style="normal" font-weight="bold" text-decoration="none" x="27.48974609375" y="961.5">BufferedImage</text></g></g><g transform="translate(-10,-10) scale(1,1)"><rect fill="#C0C0C0" stroke="none" x="39.146240234375" y="984" width="75.45361328125" height="24" opacity="0.2"/></g><g transform="translate(-10,-10) scale(1,1)"><rect fill="#ffffff" stroke="none" x="32.146240234375" y="977" width="75.45361328125" height="24"/></g><g transform="translate(-10,-10) scale(1,1)"><path fill="none" stroke="#000000" d="M 32.146240234375 977 L 107.599853515625 977 L 107.599853515625 1001 L 32.146240234375 1001 L 32.146240234375 977 Z Z" stroke-miterlimit="10"/></g><g transform="translate(-10,-10) scale(1,1)"><g><path fill="none" stroke="none"/><text fill="#000000" stroke="none" font-family="Arial" font-size="13px" font-style="normal" font-weight="bold" text-decoration="none" x="39.166259765625" y="996.5">Dimension</text></g></g><g transform="translate(-10,-10) scale(1,1)"><rect fill="#C0C0C0" stroke="none" x="34.4521484375" y="1019" width="85.55908203125" height="24" opacity="0.2"/></g><g transform="translate(-10,-10) scale(1,1)"><rect fill="#ffffff" stroke="none" x="27.4521484375" y="1012" width="85.55908203125" height="24"/></g><g transform="translate(-10,-10) scale(1,1)"><path fill="none" stroke="#000000" d="M 27.4521484375 1012 L 113.01123046875 1012 L 113.01123046875 1036 L 27.4521484375 1036 L 27.4521484375 1012 Z Z" stroke-miterlimit="10"/></g><g transform="translate(-10,-10) scale(1,1)"><g><path fill="none" stroke="none"/><text fill="#000000" stroke="none" font-family="Arial" font-size="13px" font-style="normal" font-weight="bold" text-decoration="none" x="34.82763671875" y="1031.5">JComboBox</text></g></g><g transform="translate(-10,-10) scale(1,1)"><rect fill="#C0C0C0" stroke="none" x="44.922607421875" y="1054" width="61" height="24" opacity="0.2"/></g><g transform="translate(-10,-10) scale(1,1)"><rect fill="#ffffff" stroke="none" x="37.922607421875" y="1047" width="61" height="24"/></g><g transform="translate(-10,-10) scale(1,1)"><path fill="none" stroke="#000000" d="M 37.922607421875 1047 L 98.922607421875 1047 L 98.922607421875 1071 L 37.922607421875 1071 L 37.922607421875 1047 Z Z" stroke-miterlimit="10"/></g><g transform="translate(-10,-10) scale(1,1)"><g><path fill="none" stroke="none"/><text fill="#000000" stroke="none" font-family="Arial" font-size="13px" font-style="normal" font-weight="bold" text-decoration="none" x="43.85400390625" y="1066.5">Random</text></g></g><g transform="translate(-10,-10) scale(1,1)"><rect fill="#C0C0C0" stroke="none" x="55.76123046875" y="1089" width="35" height="24" opacity="0.2"/></g><g transform="translate(-10,-10) scale(1,1)"><rect fill="#ffffff" stroke="none" x="48.76123046875" y="1082" width="35" height="24"/></g><g transform="translate(-10,-10) scale(1,1)"><path fill="none" stroke="#000000" d="M 48.76123046875 1082 L 83.76123046875 1082 L 83.76123046875 1106 L 48.76123046875 1106 L 48.76123046875 1082 Z Z" stroke-miterlimit="10"/></g><g transform="translate(-10,-10) scale(1,1)"><g><path fill="none" stroke="none"/><text fill="#000000" stroke="none" font-family="Arial" font-size="13px" font-style="normal" font-weight="bold" text-decoration="none" x="53.61669921875" y="1101.5">Map</text></g></g><g transform="translate(-10,-10) scale(1,1)"><path fill="none" stroke="#000000" d="M 222 49 Q 164 50 96 62" stroke-miterlimit="10"/></g><g transform="translate(-10,-10) scale(1,1)"><path fill="#FFFFFF" stroke="none" d="M 114.55296532915077 50.17682455956397 L 96 62 L 117.47917512445198 66.75868006627084"/></g><g transform="translate(-10,-10) scale(1,1)"><path fill="none" stroke="#000000" d="M 114.55296532915077 50.17682455956397 L 96 62 L 117.47917512445198 66.75868006627084 L 114.55296532915077 50.17682455956397" stroke-miterlimit="10"/></g><g transform="translate(-10,-10) scale(1,1)"><path fill="none" stroke="#000000" d="M 443 32 Q 376 33 328 41" stroke-miterlimit="10"/></g><g transform="translate(-10,-10) scale(1,1)"><path fill="#FFFFFF" stroke="none" d="M 346.6647205466184 29.354047616590567 L 328 41 L 349.43288237115024 45.963018563781326"/></g><g transform="translate(-10,-10) scale(1,1)"><path fill="none" stroke="#000000" d="M 346.6647205466184 29.354047616590567 L 328 41 L 349.43288237115024 45.963018563781326 L 346.6647205466184 29.354047616590567" stroke-miterlimit="10"/></g><g transform="translate(-10,-10) scale(1,1)"><path fill="none" stroke="#000000" d="M 443 67 Q 376 68 328 59" stroke-miterlimit="10"/></g><g transform="translate(-10,-10) scale(1,1)"><path fill="#FFFFFF" stroke="none" d="M 349.52875264587885 54.47089307781723 L 328 59 L 346.4256892037831 71.02056476899439"/></g><g transform="translate(-10,-10) scale(1,1)"><path fill="none" stroke="#000000" d="M 349.52875264587885 54.47089307781723 L 328 59 L 346.4256892037831 71.02056476899439 L 349.52875264587885 54.47089307781723" stroke-miterlimit="10"/></g><g transform="translate(-10,-10) scale(1,1)"><path fill="none" stroke="#000000" d="M 450 110 Q 352 96 297 63" stroke-miterlimit="10"/></g><g transform="translate(-10,-10) scale(1,1)"><path fill="#FFFFFF" stroke="none" d="M 318.760401629193 66.23804276318523 L 297 63 L 310.09728555772483 80.67656954896545"/></g><g transform="translate(-10,-10) scale(1,1)"><path fill="none" stroke="#000000" d="M 318.760401629193 66.23804276318523 L 297 63 L 310.09728555772483 80.67656954896545 L 318.760401629193 66.23804276318523" stroke-miterlimit="10"/></g><g transform="translate(-10,-10) scale(1,1)"><path fill="none" stroke="#000000" d="M 229 84 Q 164 85 96 72" stroke-miterlimit="10"/></g><g transform="translate(-10,-10) scale(1,1)"><path fill="#FFFFFF" stroke="none" d="M 117.54469185915022 67.54733195777334 L 96 72 L 114.38290947921082 84.08588594514862"/></g><g transform="translate(-10,-10) scale(1,1)"><path fill="none" stroke="#000000" d="M 117.54469185915022 67.54733195777334 L 96 72 L 114.38290947921082 84.08588594514862 L 117.54469185915022 67.54733195777334" stroke-miterlimit="10"/></g><g transform="translate(-10,-10) scale(1,1)"><path fill="none" stroke="#000000" d="M 234 119 Q 164 120 92 80" stroke-miterlimit="10"/></g><g transform="translate(-10,-10) scale(1,1)"><path fill="#FFFFFF" stroke="none" d="M 113.85619742705934 82.51130126217559 L 92 80 L 105.67890725953893 97.23042356371234"/></g><g transform="translate(-10,-10) scale(1,1)"><path fill="none" stroke="#000000" d="M 113.85619742705934 82.51130126217559 L 92 80 L 105.67890725953893 97.23042356371234 L 113.85619742705934 82.51130126217559" stroke-miterlimit="10"/></g><g transform="translate(-10,-10) scale(1,1)"><path fill="none" stroke="#000000" d="M 243 154 Q 164 155 88 168" stroke-miterlimit="10"/></g><g transform="translate(-10,-10) scale(1,1)"><path fill="#FFFFFF" stroke="none" d="M 106.61488838117481 156.27456053887943 L 88 168 L 109.45385156071006 172.87157605000868"/></g><g transform="translate(-10,-10) scale(1,1)"><path fill="none" stroke="#000000" d="M 106.61488838117481 156.27456053887943 L 88 168 L 109.45385156071006 172.87157605000868 L 106.61488838117481 156.27456053887943" stroke-miterlimit="10"/></g><g transform="translate(-10,-10) scale(1,1)"><path fill="none" stroke="#000000" d="M 215 243 Q 164 243 85 185" stroke-miterlimit="10"/></g><g transform="translate(-10,-10) scale(1,1)"><path fill="#FFFFFF" stroke="none" d="M 106.3663028397021 190.24224216935252 L 85 185 L 96.4014326402675 203.81508261340997"/></g><g transform="translate(-10,-10) scale(1,1)"><path fill="none" stroke="#000000" d="M 106.3663028397021 190.24224216935252 L 85 185 L 96.4014326402675 203.81508261340997 L 106.3663028397021 190.24224216935252" stroke-miterlimit="10"/></g><g transform="translate(-10,-10) scale(1,1)"><path fill="none" stroke="#000000" d="M 231 452 Q 164 453 95 477" stroke-miterlimit="10"/></g><g transform="translate(-10,-10) scale(1,1)"><path fill="#FFFFFF" stroke="none" d="M 111.43140089016896 462.3709513369271 L 95 477 L 116.96305450579999 478.2744554818663"/></g><g transform="translate(-10,-10) scale(1,1)"><path fill="none" stroke="#000000" d="M 111.43140089016896 462.3709513369271 L 95 477 L 116.96305450579999 478.2744554818663 L 111.43140089016896 462.3709513369271" stroke-miterlimit="10"/></g><g transform="translate(-10,-10) scale(1,1)"><path fill="none" stroke="#000000" d="M 237 347 Q 164 348 113 347" stroke-miterlimit="10"/></g><g transform="translate(-10,-10) scale(1,1)"><path fill="#FFFFFF" stroke="none" d="M 133.48649102626717 338.98104212315127 L 113 347 L 133.1563962201599 355.81587723462184"/></g><g transform="translate(-10,-10) scale(1,1)"><path fill="none" stroke="#000000" d="M 133.48649102626717 338.98104212315127 L 113 347 L 133.1563962201599 355.81587723462184 L 133.48649102626717 338.98104212315127" stroke-miterlimit="10"/></g><g transform="translate(-10,-10) scale(1,1)"><path fill="none" stroke="#000000" d="M 230 382 Q 164 383 96 382" stroke-miterlimit="10"/></g><g transform="translate(-10,-10) scale(1,1)"><path fill="#FFFFFF" stroke="none" d="M 116.4469482216037 373.8807445893692 L 96 382 L 116.19935630110879 390.7169951830236"/></g><g transform="translate(-10,-10) scale(1,1)"><path fill="none" stroke="#000000" d="M 116.4469482216037 373.8807445893692 L 96 382 L 116.19935630110879 390.7169951830236 L 116.4469482216037 373.8807445893692" stroke-miterlimit="10"/></g><g transform="translate(-10,-10) scale(1,1)"><path fill="none" stroke="#000000" d="M 217 488 Q 164 488 95 487" stroke-miterlimit="10"/></g><g transform="translate(-10,-10) scale(1,1)"><path fill="#FFFFFF" stroke="none" d="M 115.44521767958837 478.876387870273 L 95 487 L 115.20121328873127 495.7126908394128"/></g><g transform="translate(-10,-10) scale(1,1)"><path fill="none" stroke="#000000" d="M 115.44521767958837 478.876387870273 L 95 487 L 115.20121328873127 495.7126908394128 L 115.44521767958837 478.876387870273" stroke-miterlimit="10"/></g><g transform="translate(-10,-10) scale(1,1)"><path fill="none" stroke="#000000" d="M 233 417 Q 164 418 94 417" stroke-miterlimit="10"/></g><g transform="translate(-10,-10) scale(1,1)"><path fill="#FFFFFF" stroke="none" d="M 114.44353568248638 408.8721559562879 L 94 417 L 114.20301635225078 425.70850907277975"/></g><g transform="translate(-10,-10) scale(1,1)"><path fill="none" stroke="#000000" d="M 114.44353568248638 408.8721559562879 L 94 417 L 114.20301635225078 425.70850907277975 L 114.44353568248638 408.8721559562879" stroke-miterlimit="10"/></g><g transform="translate(-10,-10) scale(1,1)"><path fill="none" stroke="#000000" d="M 230 522 Q 164 523 95 497" stroke-miterlimit="10"/></g><g transform="translate(-10,-10) scale(1,1)"><path fill="#FFFFFF" stroke="none" d="M 116.98849558061237 496.2886195803998 L 95 497 L 111.05123625184405 512.0451924144388"/></g><g transform="translate(-10,-10) scale(1,1)"><path fill="none" stroke="#000000" d="M 116.98849558061237 496.2886195803998 L 95 497 L 111.05123625184405 512.0451924144388 L 116.98849558061237 496.2886195803998" stroke-miterlimit="10"/></g><g transform="translate(-10,-10) scale(1,1)"><path fill="none" stroke="#000000" d="M 234 592 Q 164 593 81.74755859375 612.6179342830883" stroke-miterlimit="10"/></g><g transform="translate(-10,-10) scale(1,1)"><path fill="none" stroke="#000000" d="M 230 627 Q 164 628 81.74755859375 617.2248200061274" stroke-miterlimit="10"/></g><g transform="translate(-10,-10) scale(1,1)"><path fill="none" stroke="#000000" d="M 226 662 Q 164 663 81.74755859375 621.6013614430148" stroke-miterlimit="10"/></g><g transform="translate(-10,-10) scale(1,1)"><path fill="none" stroke="#000000" d="M 213 698 Q 164 698 80.42105263157895 626" stroke-miterlimit="10"/></g><g transform="translate(-10,-10) scale(1,1)"><path fill="none" stroke="#000000" d="M 215 733 Q 164 733 76.94736842105263 626" stroke-miterlimit="10"/></g><g transform="translate(-10,-10) scale(1,1)"><path fill="none" stroke="#000000" d="M 423 518 Q 360 520 304 544" stroke-miterlimit="10"/></g><g transform="translate(-10,-10) scale(1,1)"><path fill="#FFFFFF" stroke="none" d="M 319.3655236105367 528.2551378483633 L 304 544 L 325.9983647377622 543.7317671452229"/></g><g transform="translate(-10,-10) scale(1,1)"><path fill="none" stroke="#000000" d="M 319.3655236105367 528.2551378483633 L 304 544 L 325.9983647377622 543.7317671452229 L 319.3655236105367 528.2551378483633" stroke-miterlimit="10"/></g><g transform="translate(-10,-10) scale(1,1)"><path fill="none" stroke="#000000" d="M 225 557 Q 164 558 86 500" stroke-miterlimit="10"/></g><g transform="translate(-10,-10) scale(1,1)"><path fill="#FFFFFF" stroke="none" d="M 107.33398949302956 505.3722334565155 L 86 500 L 97.2866659330644 518.8841513475031"/></g><g transform="translate(-10,-10) scale(1,1)"><path fill="none" stroke="#000000" d="M 107.33398949302956 505.3722334565155 L 86 500 L 97.2866659330644 518.8841513475031 L 107.33398949302956 505.3722334565155" stroke-miterlimit="10"/></g><g transform="translate(-10,-10) scale(1,1)"><path fill="none" stroke="#000000" d="M 447 574 Q 376 575 324 566" stroke-miterlimit="10"/></g><g transform="translate(-10,-10) scale(1,1)"><path fill="#FFFFFF" stroke="none" d="M 345.46338801025036 561.1706133804136 L 324 566 L 342.59179923696723 577.7620151816049"/></g><g transform="translate(-10,-10) scale(1,1)"><path fill="none" stroke="#000000" d="M 345.46338801025036 561.1706133804136 L 324 566 L 342.59179923696723 577.7620151816049 L 345.46338801025036 561.1706133804136" stroke-miterlimit="10"/></g><g transform="translate(-10,-10) scale(1,1)"><path fill="none" stroke="#000000" d="M 454 609 Q 376 610 299 570" stroke-miterlimit="10"/></g><g transform="translate(-10,-10) scale(1,1)"><path fill="#FFFFFF" stroke="none" d="M 320.9179152217878 571.8986817349208 L 299 570 L 313.15573575272043 586.8408772128756"/></g><g transform="translate(-10,-10) scale(1,1)"><path fill="none" stroke="#000000" d="M 320.9179152217878 571.8986817349208 L 299 570 L 313.15573575272043 586.8408772128756 L 320.9179152217878 571.8986817349208" stroke-miterlimit="10"/></g></g></svg>
