<svg version="1.1" xmlns="http://www.w3.org/2000/svg" xmlns:xlink="http://www.w3.org/1999/xlink" width="408.3603515625" height="154"><defs/><g><g transform="translate(-10,-10) scale(1,1)"><rect fill="#C0C0C0" stroke="none" x="110.12744140625" y="82" width="103.6435546875" height="24" opacity="0.2"/></g><g transform="translate(-10,-10) scale(1,1)"><rect fill="#ffffff" stroke="none" x="103.12744140625" y="75" width="103.6435546875" height="24"/></g><g transform="translate(-10,-10) scale(1,1)"><path fill="none" stroke="#000000" d="M 103.12744140625 75 L 206.77099609375 75 L 206.77099609375 99 L 103.12744140625 99 L 103.12744140625 75 Z Z" stroke-miterlimit="10"/></g><g transform="translate(-10,-10) scale(1,1)"><g><path fill="none" stroke="none"/><text fill="#000000" stroke="none" font-family="Arial" font-size="13px" font-style="italic" font-weight="bold" text-decoration="none" x="110.499755859375" y="94.5">BuyableSquare</text></g></g><g transform="translate(-10,-10) scale(1,1)"><rect fill="#C0C0C0" stroke="none" x="232.46923828125" y="82" width="82.68994140625" height="24" opacity="0.2"/></g><g transform="translate(-10,-10) scale(1,1)"><rect fill="#ffffff" stroke="none" x="225.46923828125" y="75" width="82.68994140625" height="24"/></g><g transform="translate(-10,-10) scale(1,1)"><path fill="none" stroke="#000000" d="M 225.46923828125 75 L 308.1591796875 75 L 308.1591796875 99 L 225.46923828125 99 L 225.46923828125 75 Z Z" stroke-miterlimit="10"/></g><g transform="translate(-10,-10) scale(1,1)"><g><path fill="none" stroke="none"/><text fill="#000000" stroke="none" font-family="Arial" font-size="13px" font-style="normal" font-weight="bold" text-decoration="none" x="231.765625" y="94.5">CardSquare</text></g></g><g transform="translate(-10,-10) scale(1,1)"><rect fill="#C0C0C0" stroke="none" x="27" y="137" width="106.53173828125" height="24" opacity="0.2"/></g><g transform="translate(-10,-10) scale(1,1)"><rect fill="#ffffff" stroke="none" x="20" y="130" width="106.53173828125" height="24"/></g><g transform="translate(-10,-10) scale(1,1)"><path fill="none" stroke="#000000" d="M 20 130 L 126.53173828125 130 L 126.53173828125 154 L 20 154 L 20 130 Z Z" stroke-miterlimit="10"/></g><g transform="translate(-10,-10) scale(1,1)"><g><path fill="none" stroke="none"/><text fill="#000000" stroke="none" font-family="Arial" font-size="13px" font-style="normal" font-weight="bold" text-decoration="none" x="27.740478515625" y="149.5">PropertySquare</text></g></g><g transform="translate(-10,-10) scale(1,1)"><rect fill="#C0C0C0" stroke="none" x="156.0703125" y="137" width="105.08447265625" height="24" opacity="0.2"/></g><g transform="translate(-10,-10) scale(1,1)"><rect fill="#ffffff" stroke="none" x="149.0703125" y="130" width="105.08447265625" height="24"/></g><g transform="translate(-10,-10) scale(1,1)"><path fill="none" stroke="#000000" d="M 149.0703125 130 L 254.15478515625 130 L 254.15478515625 154 L 149.0703125 154 L 149.0703125 130 Z Z" stroke-miterlimit="10"/></g><g transform="translate(-10,-10) scale(1,1)"><g><path fill="none" stroke="none"/><text fill="#000000" stroke="none" font-family="Arial" font-size="13px" font-style="normal" font-weight="bold" text-decoration="none" x="156.44580078125" y="149.5">RailroadSquare</text></g></g><g transform="translate(-10,-10) scale(1,1)"><rect fill="#C0C0C0" stroke="none" x="295.871337890625" y="27" width="53.07177734375" height="24" opacity="0.2"/></g><g transform="translate(-10,-10) scale(1,1)"><rect fill="#ffffff" stroke="none" x="288.871337890625" y="20" width="53.07177734375" height="24"/></g><g transform="translate(-10,-10) scale(1,1)"><path fill="none" stroke="#000000" d="M 288.871337890625 20 L 341.943115234375 20 L 341.943115234375 44 L 288.871337890625 44 L 288.871337890625 20 Z Z" stroke-miterlimit="10"/></g><g transform="translate(-10,-10) scale(1,1)"><g><path fill="none" stroke="none"/><text fill="#000000" stroke="none" font-family="Arial" font-size="13px" font-style="normal" font-weight="bold" text-decoration="none" x="294.447265625" y="39.5">Square</text></g></g><g transform="translate(-10,-10) scale(1,1)"><rect fill="#C0C0C0" stroke="none" x="340.8525390625" y="82" width="74.5078125" height="24" opacity="0.2"/></g><g transform="translate(-10,-10) scale(1,1)"><rect fill="#ffffff" stroke="none" x="333.8525390625" y="75" width="74.5078125" height="24"/></g><g transform="translate(-10,-10) scale(1,1)"><path fill="none" stroke="#000000" d="M 333.8525390625 75 L 408.3603515625 75 L 408.3603515625 99 L 333.8525390625 99 L 333.8525390625 75 Z Z" stroke-miterlimit="10"/></g><g transform="translate(-10,-10) scale(1,1)"><g><path fill="none" stroke="none"/><text fill="#000000" stroke="none" font-family="Arial" font-size="13px" font-style="normal" font-weight="bold" text-decoration="none" x="340.031494140625" y="94.5">TaxSquare</text></g></g><g transform="translate(-10,-10) scale(1,1)"><rect fill="#C0C0C0" stroke="none" x="284.4423828125" y="137" width="89.18359375" height="24" opacity="0.2"/></g><g transform="translate(-10,-10) scale(1,1)"><rect fill="#ffffff" stroke="none" x="277.4423828125" y="130" width="89.18359375" height="24"/></g><g transform="translate(-10,-10) scale(1,1)"><path fill="none" stroke="#000000" d="M 277.4423828125 130 L 366.6259765625 130 L 366.6259765625 154 L 277.4423828125 154 L 277.4423828125 130 Z Z" stroke-miterlimit="10"/></g><g transform="translate(-10,-10) scale(1,1)"><g><path fill="none" stroke="none"/><text fill="#000000" stroke="none" font-family="Arial" font-size="13px" font-style="normal" font-weight="bold" text-decoration="none" x="285.18603515625" y="149.5">UtilitySquare</text></g></g><g transform="translate(-10,-10) scale(1,1)"><path fill="none" stroke="#000000" d="M 152 74 Q 149 60 288 37" stroke-miterlimit="10"/></g><g transform="translate(-10,-10) scale(1,1)"><path fill="#FFFFFF" stroke="none" d="M 269.3217029599188 48.62416533272363 L 288 37 L 266.5729233695395 32.011975634344424"/></g><g transform="translate(-10,-10) scale(1,1)"><path fill="none" stroke="#000000" d="M 269.3217029599188 48.62416533272363 L 288 37 L 266.5729233695395 32.011975634344424 L 269.3217029599188 48.62416533272363" stroke-miterlimit="10"/></g><g transform="translate(-10,-10) scale(1,1)"><path fill="none" stroke="#000000" d="M 72 129 Q 70 115 115 100" stroke-miterlimit="10"/></g><g transform="translate(-10,-10) scale(1,1)"><path fill="#FFFFFF" stroke="none" d="M 98.38001299009446 114.41443830992284 L 115 100 L 93.05534740612187 98.44044155800506"/></g><g transform="translate(-10,-10) scale(1,1)"><path fill="none" stroke="#000000" d="M 98.38001299009446 114.41443830992284 L 115 100 L 93.05534740612187 98.44044155800506 L 98.38001299009446 114.41443830992284" stroke-miterlimit="10"/></g><g transform="translate(-10,-10) scale(1,1)"><path fill="none" stroke="#000000" d="M 200 129 Q 198 115 174 100" stroke-miterlimit="10"/></g><g transform="translate(-10,-10) scale(1,1)"><path fill="#FFFFFF" stroke="none" d="M 195.69794198406694 103.63308596871381 L 174 100 L 186.7737821896148 117.91174163983726"/></g><g transform="translate(-10,-10) scale(1,1)"><path fill="none" stroke="#000000" d="M 195.69794198406694 103.63308596871381 L 174 100 L 186.7737821896148 117.91174163983726 L 195.69794198406694 103.63308596871381" stroke-miterlimit="10"/></g><g transform="translate(-10,-10) scale(1,1)"><path fill="none" stroke="#000000" d="M 321 129 Q 320 115 208 96" stroke-miterlimit="10"/></g><g transform="translate(-10,-10) scale(1,1)"><path fill="#FFFFFF" stroke="none" d="M 229.44715727932547 91.09903635640123 L 208 96 L 226.6309349761229 107.69992572264803"/></g><g transform="translate(-10,-10) scale(1,1)"><path fill="none" stroke="#000000" d="M 229.44715727932547 91.09903635640123 L 208 96 L 226.6309349761229 107.69992572264803 L 229.44715727932547 91.09903635640123" stroke-miterlimit="10"/></g><g transform="translate(-10,-10) scale(1,1)"><path fill="none" stroke="#000000" d="M 266 74 Q 265 60 292 45" stroke-miterlimit="10"/></g><g transform="translate(-10,-10) scale(1,1)"><path fill="#FFFFFF" stroke="none" d="M 278.32109274046104 62.230423563712336 L 292 45 L 270.1438025729407 47.5113012621756"/></g><g transform="translate(-10,-10) scale(1,1)"><path fill="none" stroke="#000000" d="M 278.32109274046104 62.230423563712336 L 292 45 L 270.1438025729407 47.5113012621756 L 278.32109274046104 62.230423563712336" stroke-miterlimit="10"/></g><g transform="translate(-10,-10) scale(1,1)"><path fill="none" stroke="#000000" d="M 370 74 Q 369 60 340 45" stroke-miterlimit="10"/></g><g transform="translate(-10,-10) scale(1,1)"><path fill="#FFFFFF" stroke="none" d="M 361.9212320894379 46.859995613166184 L 340 45 L 354.18543635135865 61.81586737345274"/></g><g transform="translate(-10,-10) scale(1,1)"><path fill="none" stroke="#000000" d="M 361.9212320894379 46.859995613166184 L 340 45 L 354.18543635135865 61.81586737345274 L 361.9212320894379 46.859995613166184" stroke-miterlimit="10"/></g></g></svg>
