<svg version="1.1" xmlns="http://www.w3.org/2000/svg" xmlns:xlink="http://www.w3.org/1999/xlink" width="327.54833984375" height="154"><defs/><g><g transform="translate(93,-10) scale(1,1)"><rect fill="#C0C0C0" stroke="none" x="89.6070556640625" y="27" width="38.6181640625" height="24" opacity="0.2"/></g><g transform="translate(93,-10) scale(1,1)"><rect fill="#ffffff" stroke="none" x="82.6070556640625" y="20" width="38.6181640625" height="24"/></g><g transform="translate(93,-10) scale(1,1)"><path fill="none" stroke="#000000" d="M 82.6070556640625 20 L 121.2252197265625 20 L 121.2252197265625 44 L 82.6070556640625 44 L 82.6070556640625 20 Z Z" stroke-miterlimit="10"/></g><g transform="translate(93,-10) scale(1,1)"><g><path fill="none" stroke="none"/><text fill="#000000" stroke="none" font-family="Arial" font-size="13px" font-style="italic" font-weight="bold" text-decoration="none" x="87.8275146484375" y="39.5">Card</text></g></g><g transform="translate(93,-10) scale(1,1)"><rect fill="#C0C0C0" stroke="none" x="74.4488525390625" y="137" width="69.6962890625" height="24" opacity="0.2"/></g><g transform="translate(93,-10) scale(1,1)"><rect fill="#ffffff" stroke="none" x="67.4488525390625" y="130" width="69.6962890625" height="24"/></g><g transform="translate(93,-10) scale(1,1)"><path fill="none" stroke="#000000" d="M 67.4488525390625 130 L 137.1451416015625 130 L 137.1451416015625 154 L 67.4488525390625 154 L 67.4488525390625 130 Z Z" stroke-miterlimit="10"/></g><g transform="translate(93,-10) scale(1,1)"><g><path fill="none" stroke="none"/><text fill="#000000" stroke="none" font-family="Arial" font-size="13px" font-style="normal" font-weight="bold" text-decoration="none" x="73.3992919921875" y="149.5">CardDeck</text></g></g><g transform="translate(93,-10) scale(1,1)"><rect fill="#C0C0C0" stroke="none" x="27" y="82" width="55.9599609375" height="24" opacity="0.2"/></g><g transform="translate(93,-10) scale(1,1)"><rect fill="#ffffff" stroke="none" x="20" y="75" width="55.9599609375" height="24"/></g><g transform="translate(93,-10) scale(1,1)"><path fill="none" stroke="#000000" d="M 20 75 L 75.9599609375 75 L 75.9599609375 99 L 20 99 L 20 75 Z Z" stroke-miterlimit="10"/></g><g transform="translate(93,-10) scale(1,1)"><g><path fill="none" stroke="none"/><text fill="#000000" stroke="none" font-family="Arial" font-size="13px" font-style="normal" font-weight="bold" text-decoration="none" x="25.575927734375" y="94.5">Chance</text></g></g><g transform="translate(93,-10) scale(1,1)"><rect fill="#C0C0C0" stroke="none" x="108.88818359375" y="82" width="116.6181640625" height="24" opacity="0.2"/></g><g transform="translate(93,-10) scale(1,1)"><rect fill="#ffffff" stroke="none" x="101.88818359375" y="75" width="116.6181640625" height="24"/></g><g transform="translate(93,-10) scale(1,1)"><path fill="none" stroke="#000000" d="M 101.88818359375 75 L 218.50634765625 75 L 218.50634765625 99 L 101.88818359375 99 L 101.88818359375 75 Z Z" stroke-miterlimit="10"/></g><g transform="translate(93,-10) scale(1,1)"><g><path fill="none" stroke="none"/><text fill="#000000" stroke="none" font-family="Arial" font-size="13px" font-style="normal" font-weight="bold" text-decoration="none" x="110.34912109375" y="94.5">CommunityChest</text></g></g><g transform="translate(93,-10) scale(1,1)"><path fill="none" stroke="#000000" d="M 47 74 Q 46 60 82 42" stroke-miterlimit="10"/></g><g transform="translate(93,-10) scale(1,1)"><path fill="#FFFFFF" stroke="none" d="M 67.58556169007717 58.61998700990554 L 82 42 L 60.05534740612187 43.55955844199495"/></g><g transform="translate(93,-10) scale(1,1)"><path fill="none" stroke="#000000" d="M 67.58556169007717 58.61998700990554 L 82 42 L 60.05534740612187 43.55955844199495 L 67.58556169007717 58.61998700990554" stroke-miterlimit="10"/></g><g transform="translate(93,-10) scale(1,1)"><path fill="none" stroke="#000000" d="M 158 74 Q 156 60 122 43" stroke-miterlimit="10"/></g><g transform="translate(93,-10) scale(1,1)"><path fill="#FFFFFF" stroke="none" d="M 143.94465259387812 44.559558441994945 L 122 43 L 136.41443830992284 59.61998700990554"/></g><g transform="translate(93,-10) scale(1,1)"><path fill="none" stroke="#000000" d="M 143.94465259387812 44.559558441994945 L 122 43 L 136.41443830992284 59.61998700990554 L 143.94465259387812 44.559558441994945" stroke-miterlimit="10"/></g><g transform="translate(93,-10) scale(1,1)"><path fill="none" stroke="#000000" d="M 89 129 L 60 100" stroke-miterlimit="10"/></g><g transform="translate(93,-10) scale(1,1)"><path fill="none" stroke="#000000" d="M 70.16267485762415 104.20951775601598 L 60 100 L 64.20951775601598 110.16267485762415" stroke-miterlimit="10"/></g><g transform="translate(93,-10) scale(1,1)"><g><path fill="none" stroke="none"/><text fill="#000000" stroke="none" font-family="Arial" font-size="13px" font-style="normal" font-weight="normal" text-decoration="none" x="16.5" y="134.5">#chanceDrawPile</text></g></g><g transform="translate(93,-10) scale(1,1)"><g><path fill="none" stroke="none"/><text fill="#000000" stroke="none" font-family="Arial" font-size="13px" font-style="normal" font-weight="normal" text-decoration="none" x="-39.5" y="145.5">{collection="ArrayList", static=true}</text></g></g><g transform="translate(93,-10) scale(1,1)"><g><path fill="none" stroke="none"/><text fill="#000000" stroke="none" font-family="Arial" font-size="13px" font-style="normal" font-weight="normal" text-decoration="none" x="81.220458984375" y="112.5">*</text></g></g><g transform="translate(93,-10) scale(1,1)"><path fill="none" stroke="#000000" d="M 75 129 Q 46 115 47 100" stroke-miterlimit="10"/></g><g transform="translate(93,-10) scale(1,1)"><path fill="none" stroke="#000000" d="M 50.524183262882616 110.42017909297235 L 47 100 L 42.1237945855094 109.86015318114747" stroke-miterlimit="10"/></g><g transform="translate(93,-10) scale(1,1)"><g><path fill="none" stroke="none"/><text fill="#000000" stroke="none" font-family="Arial" font-size="13px" font-style="normal" font-weight="normal" text-decoration="none" x="-27.5" y="130.5">#chanceDiscardPile</text></g></g><g transform="translate(93,-10) scale(1,1)"><g><path fill="none" stroke="none"/><text fill="#000000" stroke="none" font-family="Arial" font-size="13px" font-style="normal" font-weight="normal" text-decoration="none" x="-83.5" y="132.5">{collection="ArrayList", static=true}</text></g></g><g transform="translate(93,-10) scale(1,1)"><g><path fill="none" stroke="none"/><text fill="#000000" stroke="none" font-family="Arial" font-size="13px" font-style="normal" font-weight="normal" text-decoration="none" x="55.220458984375" y="128.5">*</text></g></g><g transform="translate(93,-10) scale(1,1)"><path fill="none" stroke="#000000" d="M 116 129 L 146 100" stroke-miterlimit="10"/></g><g transform="translate(93,-10) scale(1,1)"><path fill="none" stroke="#000000" d="M 141.61886276530458 110.08987792447289 L 146 100 L 135.76744705029876 104.03668925377721" stroke-miterlimit="10"/></g><g transform="translate(93,-10) scale(1,1)"><g><path fill="none" stroke="none"/><text fill="#000000" stroke="none" font-family="Arial" font-size="13px" font-style="normal" font-weight="normal" text-decoration="none" x="70.5" y="113.5">#chestDrawPile</text></g></g><g transform="translate(93,-10) scale(1,1)"><g><path fill="none" stroke="none"/><text fill="#000000" stroke="none" font-family="Arial" font-size="13px" font-style="normal" font-weight="normal" text-decoration="none" x="6.5" y="105.5">{collection="ArrayList", static=true}</text></g></g><g transform="translate(93,-10) scale(1,1)"><g><path fill="none" stroke="none"/><text fill="#000000" stroke="none" font-family="Arial" font-size="13px" font-style="normal" font-weight="normal" text-decoration="none" x="136.220458984375" y="130.5">*</text></g></g><g transform="translate(93,-10) scale(1,1)"><path fill="none" stroke="#000000" d="M 128 129 Q 156 115 158 100" stroke-miterlimit="10"/></g><g transform="translate(93,-10) scale(1,1)"><path fill="none" stroke="#000000" d="M 160.82945453292294 110.62987239086725 L 158 100 L 152.48427163655893 109.51718133801872" stroke-miterlimit="10"/></g><g transform="translate(93,-10) scale(1,1)"><g><path fill="none" stroke="none"/><text fill="#000000" stroke="none" font-family="Arial" font-size="13px" font-style="normal" font-weight="normal" text-decoration="none" x="86.5" y="129.5">#chestDiscardPile</text></g></g><g transform="translate(93,-10) scale(1,1)"><g><path fill="none" stroke="none"/><text fill="#000000" stroke="none" font-family="Arial" font-size="13px" font-style="normal" font-weight="normal" text-decoration="none" x="26.5" y="130.5">{collection="ArrayList", static=true}</text></g></g><g transform="translate(93,-10) scale(1,1)"><g><path fill="none" stroke="none"/><text fill="#000000" stroke="none" font-family="Arial" font-size="13px" font-style="normal" font-weight="normal" text-decoration="none" x="164.220458984375" y="129.5">*</text></g></g></g></svg>
