<svg version="1.1" xmlns="http://www.w3.org/2000/svg" xmlns:xlink="http://www.w3.org/1999/xlink" width="712.66650390625" height="114"><defs/><g><g transform="translate(15,-10) scale(1,1)"><rect fill="#C0C0C0" stroke="none" x="27" y="34.5" width="81.24267578125" height="24" opacity="0.2"/></g><g transform="translate(15,-10) scale(1,1)"><rect fill="#ffffff" stroke="none" x="20" y="27.5" width="81.24267578125" height="24"/></g><g transform="translate(15,-10) scale(1,1)"><path fill="none" stroke="#000000" d="M 20 27.5 L 101.24267578125 27.5 L 101.24267578125 51.5 L 20 51.5 L 20 27.5 Z Z" stroke-miterlimit="10"/></g><g transform="translate(15,-10) scale(1,1)"><g><path fill="none" stroke="none"/><text fill="#000000" stroke="none" font-family="Arial" font-size="13px" font-style="normal" font-weight="bold" text-decoration="none" x="26.65185546875" y="47">BoardPanel</text></g></g><g transform="translate(15,-10) scale(1,1)"><rect fill="#C0C0C0" stroke="none" x="132.7236328125" y="34.5" width="67.50634765625" height="24" opacity="0.2"/></g><g transform="translate(15,-10) scale(1,1)"><rect fill="#ffffff" stroke="none" x="125.7236328125" y="27.5" width="67.50634765625" height="24"/></g><g transform="translate(15,-10) scale(1,1)"><path fill="none" stroke="#000000" d="M 125.7236328125 27.5 L 193.22998046875 27.5 L 193.22998046875 51.5 L 125.7236328125 51.5 L 125.7236328125 27.5 Z Z" stroke-miterlimit="10"/></g><g transform="translate(15,-10) scale(1,1)"><g><path fill="none" stroke="none"/><text fill="#000000" stroke="none" font-family="Arial" font-size="13px" font-style="normal" font-weight="bold" text-decoration="none" x="132.00732421875" y="47">LogPanel</text></g></g><g transform="translate(15,-10) scale(1,1)"><rect fill="#C0C0C0" stroke="none" x="125.87451171875" y="97" width="77.630859375" height="24" opacity="0.2"/></g><g transform="translate(15,-10) scale(1,1)"><rect fill="#ffffff" stroke="none" x="118.87451171875" y="90" width="77.630859375" height="24"/></g><g transform="translate(15,-10) scale(1,1)"><path fill="none" stroke="#000000" d="M 118.87451171875 90 L 196.50537109375 90 L 196.50537109375 114 L 118.87451171875 114 L 118.87451171875 90 Z Z" stroke-miterlimit="10"/></g><g transform="translate(15,-10) scale(1,1)"><g><path fill="none" stroke="none"/><text fill="#000000" stroke="none" font-family="Arial" font-size="13px" font-style="normal" font-weight="bold" text-decoration="none" x="124.82177734375" y="109.5">MainFrame</text></g></g><g transform="translate(15,-10) scale(1,1)"><rect fill="#C0C0C0" stroke="none" x="225.447265625" y="34.5" width="108.70263671875" height="24" opacity="0.2"/></g><g transform="translate(15,-10) scale(1,1)"><rect fill="#ffffff" stroke="none" x="218.447265625" y="27.5" width="108.70263671875" height="24"/></g><g transform="translate(15,-10) scale(1,1)"><path fill="none" stroke="#000000" d="M 218.447265625 27.5 L 327.14990234375 27.5 L 327.14990234375 51.5 L 218.447265625 51.5 L 218.447265625 27.5 Z Z" stroke-miterlimit="10"/></g><g transform="translate(15,-10) scale(1,1)"><g><path fill="none" stroke="none"/><text fill="#000000" stroke="none" font-family="Arial" font-size="13px" font-style="normal" font-weight="bold" text-decoration="none" x="226.19091796875" y="47">PlayerContainer</text></g></g><g transform="translate(15,-10) scale(1,1)"><rect fill="#C0C0C0" stroke="none" x="357.869140625" y="34.5" width="74.75537109375" height="24" opacity="0.2"/></g><g transform="translate(15,-10) scale(1,1)"><rect fill="#ffffff" stroke="none" x="350.869140625" y="27.5" width="74.75537109375" height="24"/></g><g transform="translate(15,-10) scale(1,1)"><path fill="none" stroke="#000000" d="M 350.869140625 27.5 L 425.62451171875 27.5 L 425.62451171875 51.5 L 350.869140625 51.5 L 350.869140625 27.5 Z Z" stroke-miterlimit="10"/></g><g transform="translate(15,-10) scale(1,1)"><g><path fill="none" stroke="none"/><text fill="#000000" stroke="none" font-family="Arial" font-size="13px" font-style="normal" font-weight="bold" text-decoration="none" x="357.536865234375" y="47">PlayerIcon</text></g></g><g transform="translate(15,-10) scale(1,1)"><rect fill="#C0C0C0" stroke="none" x="458.52099609375" y="34.5" width="82.71533203125" height="24" opacity="0.2"/></g><g transform="translate(15,-10) scale(1,1)"><rect fill="#ffffff" stroke="none" x="451.52099609375" y="27.5" width="82.71533203125" height="24"/></g><g transform="translate(15,-10) scale(1,1)"><path fill="none" stroke="#000000" d="M 451.52099609375 27.5 L 534.236328125 27.5 L 534.236328125 51.5 L 451.52099609375 51.5 L 451.52099609375 27.5 Z Z" stroke-miterlimit="10"/></g><g transform="translate(15,-10) scale(1,1)"><g><path fill="none" stroke="none"/><text fill="#000000" stroke="none" font-family="Arial" font-size="13px" font-style="normal" font-weight="bold" text-decoration="none" x="457.830078125" y="47">PlayerPanel</text></g></g><g transform="translate(15,-10) scale(1,1)"><rect fill="#C0C0C0" stroke="none" x="565.66650390625" y="27" width="21.805078125000023" height="15" opacity="0.2"/></g><g transform="translate(15,-10) scale(1,1)"><rect fill="#C0C0C0" stroke="none" x="565.66650390625" y="41" width="54.5126953125" height="25" opacity="0.2"/></g><g transform="translate(15,-10) scale(1,1)"><rect fill="#ffffff" stroke="none" x="558.66650390625" y="35" width="54.5126953125" height="24"/></g><g transform="translate(15,-10) scale(1,1)"><path fill="none" stroke="#000000" d="M 558.66650390625 35 L 613.17919921875 35 L 613.17919921875 59 L 558.66650390625 59 L 558.66650390625 35 Z Z" stroke-miterlimit="10"/></g><g transform="translate(15,-10) scale(1,1)"><rect fill="#ffffff" stroke="none" x="558.66650390625" y="20" width="21.805078125000023" height="15"/></g><g transform="translate(15,-10) scale(1,1)"><path fill="none" stroke="#000000" d="M 558.66650390625 20 L 580.47158203125 20 L 580.47158203125 35 L 558.66650390625 35 L 558.66650390625 20 Z Z" stroke-miterlimit="10"/></g><g transform="translate(15,-10) scale(1,1)"><rect fill="#ffffff" stroke="none" x="558.66650390625" y="34" width="54.5126953125" height="25"/></g><g transform="translate(15,-10) scale(1,1)"><path fill="none" stroke="#000000" d="M 558.66650390625 34 L 613.17919921875 34 L 613.17919921875 59 L 558.66650390625 59 L 558.66650390625 34 Z Z" stroke-miterlimit="10"/></g><g transform="translate(15,-10) scale(1,1)"><g><path fill="none" stroke="none"/><text fill="#000000" stroke="none" font-family="Arial" font-size="13px" font-style="normal" font-weight="bold" text-decoration="none" x="565.327880859375" y="54.5">actions</text></g></g><g transform="translate(15,-10) scale(1,1)"><rect fill="#C0C0C0" stroke="none" x="645.66650390625" y="27" width="19.600000000000023" height="15" opacity="0.2"/></g><g transform="translate(15,-10) scale(1,1)"><rect fill="#C0C0C0" stroke="none" x="645.66650390625" y="41" width="49" height="25" opacity="0.2"/></g><g transform="translate(15,-10) scale(1,1)"><rect fill="#ffffff" stroke="none" x="638.66650390625" y="35" width="49" height="24"/></g><g transform="translate(15,-10) scale(1,1)"><path fill="none" stroke="#000000" d="M 638.66650390625 35 L 687.66650390625 35 L 687.66650390625 59 L 638.66650390625 59 L 638.66650390625 35 Z Z" stroke-miterlimit="10"/></g><g transform="translate(15,-10) scale(1,1)"><rect fill="#ffffff" stroke="none" x="638.66650390625" y="20" width="19.600000000000023" height="15"/></g><g transform="translate(15,-10) scale(1,1)"><path fill="none" stroke="#000000" d="M 638.66650390625 20 L 658.26650390625 20 L 658.26650390625 35 L 638.66650390625 35 L 638.66650390625 20 Z Z" stroke-miterlimit="10"/></g><g transform="translate(15,-10) scale(1,1)"><rect fill="#ffffff" stroke="none" x="638.66650390625" y="34" width="49" height="25"/></g><g transform="translate(15,-10) scale(1,1)"><path fill="none" stroke="#000000" d="M 638.66650390625 34 L 687.66650390625 34 L 687.66650390625 59 L 638.66650390625 59 L 638.66650390625 34 Z Z" stroke-miterlimit="10"/></g><g transform="translate(15,-10) scale(1,1)"><g><path fill="none" stroke="none"/><text fill="#000000" stroke="none" font-family="Arial" font-size="13px" font-style="normal" font-weight="bold" text-decoration="none" x="646.906982421875" y="54.5">props</text></g></g><g transform="translate(15,-10) scale(1,1)"><path fill="none" stroke="#000000" d="M 118 91 Q 58 75 59 53" stroke-miterlimit="10"/></g><g transform="translate(15,-10) scale(1,1)"><path fill="none" stroke="#000000" d="M 62.74371251375514 63.343336822048926 L 59 53 L 54.333360898321885 62.961048112256506" stroke-miterlimit="10"/></g><g transform="translate(15,-10) scale(1,1)"><g><path fill="none" stroke="none"/><text fill="#000000" stroke="none" font-family="Arial" font-size="13px" font-style="normal" font-weight="normal" text-decoration="none" x="21.5" y="84.5">+board</text></g></g><g transform="translate(15,-10) scale(1,1)"><g><path fill="none" stroke="none"/><text fill="#000000" stroke="none" font-family="Arial" font-size="13px" font-style="normal" font-weight="normal" text-decoration="none" x="-5.5" y="85.5">{static=true}</text></g></g><g transform="translate(15,-10) scale(1,1)"><path fill="none" stroke="#000000" d="M 157 89 Q 157 75 158 53" stroke-miterlimit="10"/></g><g transform="translate(15,-10) scale(1,1)"><path fill="none" stroke="#000000" d="M 161.74371251375513 63.343336822048926 L 158 53 L 153.3333608983219 62.961048112256506" stroke-miterlimit="10"/></g><g transform="translate(15,-10) scale(1,1)"><g><path fill="none" stroke="none"/><text fill="#000000" stroke="none" font-family="Arial" font-size="13px" font-style="normal" font-weight="normal" text-decoration="none" x="128.5" y="84.5">+log</text></g></g><g transform="translate(15,-10) scale(1,1)"><g><path fill="none" stroke="none"/><text fill="#000000" stroke="none" font-family="Arial" font-size="13px" font-style="normal" font-weight="normal" text-decoration="none" x="93.5" y="85.5">{static=true}</text></g></g><g transform="translate(15,-10) scale(1,1)"><path fill="none" stroke="#000000" d="M 198 99 Q 490 75 491 53" stroke-miterlimit="10"/></g><g transform="translate(15,-10) scale(1,1)"><path fill="none" stroke="#000000" d="M 494.74371251375516 63.343336822048926 L 491 53 L 486.33336089832187 62.961048112256506" stroke-miterlimit="10"/></g><g transform="translate(15,-10) scale(1,1)"><g><path fill="none" stroke="none"/><text fill="#000000" stroke="none" font-family="Arial" font-size="13px" font-style="normal" font-weight="normal" text-decoration="none" x="449.5" y="84.5">+players</text></g></g><g transform="translate(15,-10) scale(1,1)"><g><path fill="none" stroke="none"/><text fill="#000000" stroke="none" font-family="Arial" font-size="13px" font-style="normal" font-weight="normal" text-decoration="none" x="426.5" y="85.5">{static=true}</text></g></g></g></svg>
